<svg xmlns="http://www.w3.org/2000/svg" data-name="Layer 1" viewBox="0 0 114 38" width="114" height="39"><style>.a{fill:#fff;}</style><title>  logo_name</title><path d="m46.84 27.91a2.07 2.07 0 0 0 0.58-0.11v1.4a3.41 3.41 0 0 1-1.24 0.22 1.75 1.75 0 0 1-1.75-1 5.08 5.08 0 0 1-3.3 1.13c-1.59 0-3.06-0.87-3.06-2.68 0-2.24 2.08-2.93 3.9-2.93a11.63 11.63 0 0 1 2.28 0.26v-0.31c0-1.09-0.8-1.86-2.3-1.86A7.79 7.79 0 0 0 38.8 22.7v-1.79a10.72 10.72 0 0 1 3.35-0.58c2.48 0 4 1.18 4 3.83v3.14a0.57 0.57 0 0 0 0.69 0.61zm-6.76-1.19a1.42 1.42 0 0 0 1.64 1.29 3.56 3.56 0 0 0 2.53-1V25.5a10.21 10.21 0 0 0-1.9-0.22c-1.1 0.01-2.27 0.35-2.27 1.45z" class="a"/><path d="m53.06 20.31a5.29 5.29 0 0 1 2.7 0.67v1.79a4.28 4.28 0 0 0-2.42-0.73 2.89 2.89 0 1 0 0 5.76 5.26 5.26 0 0 0 2.55-0.67v1.8a6.58 6.58 0 0 1-2.9 0.6 4.42 4.42 0 0 1-4.72-4.54 4.54 4.54 0 0 1 4.79-4.68z" class="a"/><path d="m65.84 27.91a2.07 2.07 0 0 0 0.58-0.11v1.4a3.41 3.41 0 0 1-1.24 0.22 1.75 1.75 0 0 1-1.75-1 5.08 5.08 0 0 1-3.3 1.13c-1.59 0-3.06-0.87-3.06-2.68 0-2.24 2.08-2.93 3.9-2.93a11.63 11.63 0 0 1 2.28 0.26v-0.31c0-1.09-0.8-1.86-2.3-1.86A7.79 7.79 0 0 0 57.8 22.7v-1.79a10.72 10.72 0 0 1 3.35-0.58c2.48 0 4 1.18 4 3.83v3.14a0.57 0.57 0 0 0 0.69 0.61zm-6.76-1.19a1.42 1.42 0 0 0 1.64 1.29 3.56 3.56 0 0 0 2.53-1V25.5a10.21 10.21 0 0 0-1.9-0.22c-1.11 0.01-2.27 0.35-2.27 1.45z" class="a"/><path d="M76.67 16.54V29.3h-1.76v-1.39a4.07 4.07 0 0 1-3.35 1.62 4.62 4.62 0 0 1 0-9.22 4 4 0 0 1 3.15 1.37v-5.14h2zm-4.76 5.48a2.9 2.9 0 0 0 0 5.8 3 3 0 0 0 2.79-1.84v-2.13a3.06 3.06 0 0 0-2.79-1.83z" class="a"/><path d="m82.99 20.31c3.48 0 4.68 2.81 4.12 5.34h-6.58c0.22 1.57 1.75 2.22 3.35 2.22a6.41 6.41 0 0 0 2.77-0.62v1.68a7.5 7.5 0 0 1-3.14 0.6c-2.68 0-5-1.53-5-4.61a4.39 4.39 0 0 1 4.48-4.61zm0.09 1.62a2.39 2.39 0 0 0-2.57 2.26h4.85a2.06 2.06 0 0 0-2.28-2.26z" class="a"/><path d="m89.1 29.3v-8.75h1.73v1.09a4 4 0 0 1 2.92-1.33 3 3 0 0 1 2.73 1.4 4.33 4.33 0 0 1 3.06-1.4 3.21 3.21 0 0 1 3.32 3.52v5.47h-2v-5.41a1.67 1.67 0 0 0-1.73-1.84 2.94 2.94 0 0 0-2.17 1.18c0 0.2 0 0.4 0 0.6v5.47h-2v-5.41a1.67 1.67 0 0 0-1.73-1.84 3.11 3.11 0 0 0-2.32 1.35v5.91h-2z" class="a"/><path d="m111.47 20.55h2l-4.1 9.93c-0.95 2.28-2.19 3-3.52 3a5 5 0 0 1-1.15-0.15v-1.66a3 3 0 0 0 0.89 0.13c0.95 0 1.66-0.67 2.17-2l0.18-0.44-4.16-8.82h2.13l3 6.6z" class="a"/><path d="m40.66 1.22v5a4 4 0 0 1 2.83-1.2 3.41 3.41 0 0 1 3.61 3.57V14h-2V8.84a1.9 1.9 0 0 0-2-2.1 3.08 3.08 0 0 0-2.44 1.46V14h-2V1.22Z" class="a"/><path d="m52.43 2.11v3.12h3.17v1.71h-3.17v4c0 1.15 0.53 1.53 1.66 1.53a4.71 4.71 0 0 0 1.77-0.35v1.68a7.14 7.14 0 0 1-2.35 0.38 2.68 2.68 0 0 1-3-2.88V6.92h-1.6V5.21h1.57V2.57Z" class="a"/><path d="M58.1 13.98V5.23h1.73v1.09a4 4 0 0 1 2.92-1.33 3 3 0 0 1 2.73 1.4 4.33 4.33 0 0 1 3.06-1.4 3.21 3.21 0 0 1 3.32 3.52v5.47h-2V8.57A1.67 1.67 0 0 0 68.13 6.73 2.94 2.94 0 0 0 65.96 7.91c0 0.2 0 0.4 0 0.6v5.47h-2V8.57A1.67 1.67 0 0 0 62.23 6.73 3.11 3.11 0 0 0 59.91 8.08v5.91h-2z" class="a"/><rect x="74.720001" y="1.2099999" width="1.95" height="12.76" class="a"/><path d="M15.44-0.29H15.28L0 1.31v28l15.28 9.09 15.28-9.09v-28zM28.56 28.16 15.28 36.06 2 28.16V16.68l13.22 7.87v1.43l-9.07-5.4v1.38l9.11 5.47v1.46l-9.1-5.42v1.38l9.11 5.47v0l9.19-5.5v-1.39 0-4.52l4.1-2.45v11.67zm0-13.16-3.65 2.14v0l-1.68 1-8-4.76v1.38l6.84 4.07h-0.06l-0.15 0.09-1 0.57-5.64-3.36v1.38l4.45 2.65-1.05 0.7v0l-3.36-2v1.38l2.21 1.3-2.25 1.35L2.06 15.07 15.23 7.15v0zm0-1.39-13.35-7.87v0L2.01 13.6V3.1L15.29 1.71 28.57 3.1v10.51z" class="a"/></svg>